<?xml version="1.0" encoding="UTF-8" standalone="no"?>
<!-- Uploaded to: SVG Repo, www.svgrepo.com, Generator: SVG Repo Mixer Tools -->

<svg
   width="600.09778"
   height="600.09875"
   viewBox="0 0 18.002933 18.002963"
   fill="none"
   version="1.1"
   id="svg4"
   sodipodi:docname="close.svg"
   inkscape:version="1.2.2 (b0a8486541, 2022-12-01)"
   xmlns:inkscape="http://www.inkscape.org/namespaces/inkscape"
   xmlns:sodipodi="http://sodipodi.sourceforge.net/DTD/sodipodi-0.dtd"
   xmlns="http://www.w3.org/2000/svg"
   xmlns:svg="http://www.w3.org/2000/svg">
  <defs
     id="defs8" />
  <sodipodi:namedview
     id="namedview6"
     pagecolor="#ffffff"
     bordercolor="#666666"
     borderopacity="1.0"
     inkscape:showpageshadow="2"
     inkscape:pageopacity="0.0"
     inkscape:pagecheckerboard="0"
     inkscape:deskcolor="#d1d1d1"
     showgrid="false"
     inkscape:zoom="0.295"
     inkscape:cx="-13.559322"
     inkscape:cy="300"
     inkscape:window-width="1890"
     inkscape:window-height="1030"
     inkscape:window-x="15"
     inkscape:window-y="15"
     inkscape:window-maximized="1"
     inkscape:current-layer="svg4" />
  <path
     d="m 17.710057,0.2928975 c -0.390499,-0.39053 -1.0237,-0.39053 -1.4142,0 l -7.2943995,7.29439 -7.29435,-7.29439 c -0.39052,-0.39053 -1.02369,-0.39053 -1.41421,0 -0.39053,0.39052 -0.39053,1.02369 0,1.41421 l 7.29436,7.29438 -7.29434,7.2943005 c -0.39053,0.3906 -0.39053,1.0237 0,1.4143 0.39052,0.3905 1.02369,0.3905 1.41421,0 l 7.29433,-7.2944 7.2944005,7.2944 c 0.390499,0.3905 1.0237,0.3905 1.4142,0 0.390499,-0.3906 0.390499,-1.0237 0,-1.4142 l -7.2944,-7.2944005 7.2944,-7.29438 c 0.390499,-0.39052 0.390499,-1.02369 -1e-6,-1.41421 z"
     fill="#0f0f0f"
     id="path2"
     style="fill:#7f7f7f;fill-opacity:1" />
</svg>
