<?xml version="1.0" encoding="UTF-8" standalone="no"?>
<!-- Uploaded to: SVG Repo, www.svgrepo.com, Generator: SVG Repo Mixer Tools -->

<svg
   width="400"
   height="433.33334"
   viewBox="0 0 12 13.000001"
   fill="none"
   version="1.1"
   id="svg4"
   sodipodi:docname="trash (copy 1).svg"
   inkscape:version="1.2.2 (b0a8486541, 2022-12-01)"
   xmlns:inkscape="http://www.inkscape.org/namespaces/inkscape"
   xmlns:sodipodi="http://sodipodi.sourceforge.net/DTD/sodipodi-0.dtd"
   xmlns="http://www.w3.org/2000/svg"
   xmlns:svg="http://www.w3.org/2000/svg">
  <sodipodi:namedview
     id="namedview6"
     pagecolor="#ffffff"
     bordercolor="#666666"
     borderopacity="1.0"
     inkscape:showpageshadow="2"
     inkscape:pageopacity="0.0"
     inkscape:pagecheckerboard="0"
     inkscape:deskcolor="#d1d1d1"
     showgrid="false"
     inkscape:zoom="0.38270269"
     inkscape:cx="-15.677967"
     inkscape:cy="275.67091"
     inkscape:window-width="1890"
     inkscape:window-height="1030"
     inkscape:window-x="15"
     inkscape:window-y="15"
     inkscape:window-maximized="1"
     inkscape:current-layer="svg4" />
  <defs
     id="defs8" />
  <path
     fill-rule="nonzero"
     d="M 4.5,5 C 4.36739,5 4.24021,5.05268 4.14645,5.14645 4.05268,5.24021 4,5.36739 4,5.5 v 4 C 4,9.6326 4.05268,9.7598 4.14645,9.8536 4.24021,9.9473 4.36739,10 4.5,10 4.63261,10 4.75979,9.9473 4.85355,9.8536 4.94732,9.7598 5,9.6326 5,9.5 v -4 C 5,5.36739 4.94732,5.24021 4.85355,5.14645 4.75979,5.05268 4.63261,5 4.5,5 Z m 3,0 C 7.36739,5 7.24021,5.05268 7.14645,5.14645 7.05268,5.24021 7,5.36739 7,5.5 v 4 C 7,9.6326 7.05268,9.7598 7.14645,9.8536 7.24021,9.9473 7.36739,10 7.5,10 7.63261,10 7.75979,9.9473 7.85355,9.8536 7.94732,9.7598 8,9.6326 8,9.5 v -4 C 8,5.36739 7.94732,5.24021 7.85355,5.14645 7.75979,5.05268 7.63261,5 7.5,5 Z M 4.5,0 C 3.6775,0 3,0.6775 3,1.5 V 2 H 0.5 C 0.36739,2 0.24021,2.05268 0.14645,2.14645 0.05268,2.24021 0,2.36739 0,2.5 0,2.63261 0.05268,2.75979 0.14645,2.85355 0.24021,2.94732 0.36739,3 0.5,3 H 1 v 9 c 7e-5,0.5463 0.45357,0.9999 0.99988,1 H 10 c 0.5464,0 1,-0.4536 1,-1 V 3 h 0.5 C 11.6326,3 11.7598,2.94732 11.8536,2.85355 11.9473,2.75979 12,2.63261 12,2.5 12,2.36739 11.9473,2.24021 11.8536,2.14645 11.7598,2.05268 11.6326,2 11.5,2 H 9 V 1.5 C 8.9999,0.67757 8.3226,10e-5 7.50012,0 Z m 0,1 h 3 C 7.78202,1.0001 7.99996,1.21808 8,1.50012 V 2 H 4 V 1.5 C 4,1.21794 4.21794,1 4.5,1 Z M 2,3 h 8 v 9 H 2.00012 Z"
     id="path3"
     style="fill:#bababa;fill-opacity:1;stroke:none;stroke-opacity:1" />
</svg>
